<?xml version="1.0" encoding="UTF-8"?>
<svg width="159px" height="182px" viewBox="0 0 159 182" version="1.1" xmlns="http://www.w3.org/2000/svg" xmlns:xlink="http://www.w3.org/1999/xlink">
    <!-- Generator: Sketch 47.1 (45422) - http://www.bohemiancoding.com/sketch -->
    <title>moltin-light-hex</title>
    <desc>Created with Sketch.</desc>
    <defs>
        <linearGradient x1="38.0785802%" y1="-4.88334321%" x2="53.2429497%" y2="64.2497581%" id="linearGradient-1">
            <stop stop-color="#E67417" offset="1.093%"></stop>
            <stop stop-color="#E62F17" offset="99.952%"></stop>
        </linearGradient>
        <linearGradient x1="49.9974855%" y1="0.659475043%" x2="49.9974855%" y2="97.2760076%" id="linearGradient-2">
            <stop stop-color="#F2BB30" offset="0%"></stop>
            <stop stop-color="#E67417" offset="30.905%"></stop>
            <stop stop-color="#E62F17" offset="100%"></stop>
        </linearGradient>
        <linearGradient x1="41.2588189%" y1="114.003432%" x2="55.3187109%" y2="25.4603788%" id="linearGradient-3">
            <stop stop-color="#FFFFFF" offset="0%"></stop>
            <stop stop-color="#FFFFFF" stop-opacity="0" offset="100%"></stop>
        </linearGradient>
    </defs>
    <g id="Page-1" stroke="none" stroke-width="1" fill="none" fill-rule="evenodd">
        <g id="moltin-light-hex" fill-rule="nonzero">
            <path d="M158.30763,48.46783 C158.307542,46.5898954 157.306142,44.8544939 155.68028,43.9147 L82.16605,1.4717 C80.5395705,0.534792732 78.5372695,0.534792732 76.91079,1.4717 L3.39657,43.9147 C1.77070308,44.8544899 0.769297857,46.5898928 0.76921,48.46783 L0.76921,133.35383 C0.769349264,135.231175 1.7708464,136.965895 3.39657,137.90475 L76.91079,180.34775 C78.5372662,181.28467 80.5395738,181.28467 82.16605,180.34775 L155.68028,137.90475 C157.305998,136.965891 158.307491,135.231173 158.30763,133.35383 L158.30763,48.46783 Z" id="Shape" fill="#FFFFFF"></path>
            <path d="M13.62543,132.41282 C11.7774358,131.345878 10.6390234,129.374091 10.63902,127.24021 L10.63902,84.14421 C10.5038772,79.1939306 11.2318664,74.2579323 12.79036,69.55744 C15.29706,62.79136 20.25473,56.17215 30.082,52.26839 C48.91167,44.78854 67.52226,54.90167 78.03611,69.89364 C86.86438,82.48209 92.01682,87.48718 103.11791,95.98564 C112.94769,103.51081 143.77551,117.04464 148.43803,90.08764 L148.43803,127.24024 C148.438027,129.374124 147.29961,131.345912 145.45161,132.41285 L82.52493,168.74359 C80.6769325,169.810529 78.4001075,169.810529 76.55211,168.74359 L13.62543,132.41282 Z" id="Shape" fill="url(#linearGradient-1)"></path>
            <path d="M13.62543,132.41282 L76.55211,168.74356 C78.4001075,169.810499 80.6769325,169.810499 82.52493,168.74356 L145.45161,132.41282 C147.29961,131.345882 148.438027,129.374094 148.43803,127.24021 L148.43803,90.08761 C148.43803,62.56802 117.74266,60.29602 101.92303,82.16754 C89.38438,99.50289 83.83054,105.70954 67.04593,111.81308 C47.40249,118.95615 29.77104,115.0828 19.74387,105.27362 C14.0092185,99.7288383 10.7307409,92.1205661 10.639,84.1442 L10.639,127.2402 C10.639004,129.374089 11.777425,131.345881 13.62543,132.41282 Z" id="Shape" fill="url(#linearGradient-2)"></path>
            <path d="M148.438,90.08761 C148.438,62.56805 117.74263,60.296 101.92292,82.16754 C99.74611,85.17715 97.7826,87.84466 95.93148,90.24107 C98.06758,92.05555 100.41559,93.91688 103.11786,95.98561 C112.94767,103.51077 143.77547,117.04462 148.438,90.08761 Z" id="Shape" fill="url(#linearGradient-3)" opacity="0.3"></path>
        </g>
    </g>
</svg>